<?xml version="1.0" encoding="UTF-8" standalone="no"?><!DOCTYPE svg PUBLIC "-//W3C//DTD SVG 1.1//EN" "http://www.w3.org/Graphics/SVG/1.1/DTD/svg11.dtd"><svg width="100%" height="100%" viewBox="0 0 534 534" version="1.1" xmlns="http://www.w3.org/2000/svg" xmlns:xlink="http://www.w3.org/1999/xlink" xml:space="preserve" xmlns:serif="http://www.serif.com/" style="fill-rule:evenodd;clip-rule:evenodd;stroke-linejoin:round;stroke-miterlimit:2;"><path d="M33.333,50l0,116.667l-5.555,-0l-0,316.666l477.778,0l-0,-350l-5.556,0l-0,-50l-233.333,0l-33.334,-33.333l-200,0Z" style="fill:#3daee9;fill-rule:nonzero;"/><path d="M33.333,50l0,116.667l150,-0l33.334,-33.334l283.333,0l-0,-50l-233.333,0l-33.334,-33.333l-200,-0Z" style="fill-opacity:0.33;fill-rule:nonzero;"/><path d="M233.333,50l27.778,38.889l238.889,-0l-0,-5.556l-233.333,0l-33.334,-33.333Zm-16.666,83.333l-33.334,33.334l-155.555,-0l-0,5.555l161.111,0l27.778,-38.889Z" style="fill:#fff;fill-opacity:0.2;fill-rule:nonzero;"/><path d="M216.667,133.333l-38.889,27.778l-144.445,0l0,5.556l150,-0l33.334,-33.334Zm-188.889,344.445l-0,5.555l477.778,0l-0,-5.555l-477.778,-0Z" style="fill-opacity:0.2;"/><path id="use4863" d="M244.469,283.91l-50.538,87.525l-11.799,-20.002l13.62,-23.44l-27.05,-0.071l-5.765,-9.995l5.887,-10.222l38.503,0.121l13.837,-23.855l23.305,-0.061Z" style="fill:#aedaf2;"/><path id="use4865" d="M248.346,353.876l101.068,0.005l-11.422,20.219l-27.111,-0.075l13.464,23.461l-5.773,9.99l-11.797,0.013l-19.145,-33.405l-27.579,-0.056l-11.705,-20.152l0,-0Z" style="fill:#aedaf2;"/><path id="use4867" d="M307.171,315.525l-50.53,-87.529l23.222,-0.218l13.49,23.516l13.586,-23.391l11.538,0.005l5.91,10.209l-19.357,33.284l13.741,23.911l-11.6,20.213Z" style="fill:#aedaf2;"/><path id="path4873" d="M226.231,319.965l50.529,87.529l-23.221,0.218l-13.49,-23.516l-13.587,23.39l-11.537,-0.004l-5.91,-10.21l19.357,-33.283l-13.741,-23.911l11.6,-20.213Z" style="fill:#aedaf2;"/><path id="use4875" d="M284.921,281.392l-101.067,-0.005l11.422,-20.219l27.11,0.075l-13.463,-23.461l5.773,-9.99l11.796,-0.013l19.146,33.405l27.578,0.056l11.705,20.152l0,0Z" style="fill:#aedaf2;"/><path id="use4877" d="M288.864,351.561l50.538,-87.524l11.8,20.001l-13.621,23.441l27.05,0.071l5.765,9.994l-5.887,10.223l-38.502,-0.122l-13.838,23.855l-23.305,0.061Z" style="fill:#aedaf2;"/></svg>