<?xml version="1.0" encoding="UTF-8" standalone="no"?>
<svg
   version="1.2"
   width="141.55mm"
   height="141.55mm"
   viewBox="0 0 14155 14155"
   preserveAspectRatio="xMidYMid"
   fill-rule="evenodd"
   stroke-width="28.222"
   stroke-linejoin="round"
   xml:space="preserve"
   id="svg20"
   sodipodi:docname="nextcloud-light.svg"
   inkscape:version="1.4.2 (ebf0e940d0, 2025-05-08)"
   xmlns:inkscape="http://www.inkscape.org/namespaces/inkscape"
   xmlns:sodipodi="http://sodipodi.sourceforge.net/DTD/sodipodi-0.dtd"
   xmlns="http://www.w3.org/2000/svg"
   xmlns:svg="http://www.w3.org/2000/svg"
   xmlns:ooo="http://xml.openoffice.org/svg/export"><sodipodi:namedview
   id="namedview20"
   pagecolor="#ffffff"
   bordercolor="#000000"
   borderopacity="0.25"
   inkscape:showpageshadow="2"
   inkscape:pageopacity="0.0"
   inkscape:pagecheckerboard="0"
   inkscape:deskcolor="#d1d1d1"
   inkscape:document-units="mm"
   inkscape:zoom="1.7888113"
   inkscape:cx="267.21655"
   inkscape:cy="267.49607"
   inkscape:window-width="2048"
   inkscape:window-height="1208"
   inkscape:window-x="0"
   inkscape:window-y="0"
   inkscape:window-maximized="1"
   inkscape:current-layer="svg20" />
 <defs
   class="ClipPathGroup"
   id="defs2">
  <clipPath
   id="presentation_clip_path"
   clipPathUnits="userSpaceOnUse">
   <rect
   x="0"
   y="0"
   width="14155"
   height="14155"
   id="rect1" />
  </clipPath>
  <clipPath
   id="presentation_clip_path_shrink"
   clipPathUnits="userSpaceOnUse">
   <rect
   x="14"
   y="14"
   width="14127"
   height="14127"
   id="rect2" />
  </clipPath>
 </defs>
 <defs
   class="TextShapeIndex"
   id="defs3">
  <g
   ooo:slide="id1"
   ooo:id-list="id3 id4"
   id="g2" />
 </defs>
 <defs
   class="EmbeddedBulletChars"
   id="defs12">
  <g
   id="bullet-char-template-57356"
   transform="scale(0.00048828125,-0.00048828125)">
   <path
   d="M 580,1141 L 1163,571 580,0 -4,571 580,1141 Z"
   id="path3" />
  </g>
  <g
   id="bullet-char-template-57354"
   transform="scale(0.00048828125,-0.00048828125)">
   <path
   d="M 8,1128 L 1137,1128 1137,0 8,0 8,1128 Z"
   id="path4" />
  </g>
  <g
   id="bullet-char-template-10146"
   transform="scale(0.00048828125,-0.00048828125)">
   <path
   d="M 174,0 L 602,739 174,1481 1456,739 174,0 Z M 1358,739 L 309,1346 659,739 1358,739 Z"
   id="path5" />
  </g>
  <g
   id="bullet-char-template-10132"
   transform="scale(0.00048828125,-0.00048828125)">
   <path
   d="M 2015,739 L 1276,0 717,0 1260,543 174,543 174,936 1260,936 717,1481 1274,1481 2015,739 Z"
   id="path6" />
  </g>
  <g
   id="bullet-char-template-10007"
   transform="scale(0.00048828125,-0.00048828125)">
   <path
   d="M 0,-2 C -7,14 -16,27 -25,37 L 356,567 C 262,823 215,952 215,954 215,979 228,992 255,992 264,992 276,990 289,987 310,991 331,999 354,1012 L 381,999 492,748 772,1049 836,1024 860,1049 C 881,1039 901,1025 922,1006 886,937 835,863 770,784 769,783 710,716 594,584 L 774,223 C 774,196 753,168 711,139 L 727,119 C 717,90 699,76 672,76 641,76 570,178 457,381 L 164,-76 C 142,-110 111,-127 72,-127 30,-127 9,-110 8,-76 1,-67 -2,-52 -2,-32 -2,-23 -1,-13 0,-2 Z"
   id="path7" />
  </g>
  <g
   id="bullet-char-template-10004"
   transform="scale(0.00048828125,-0.00048828125)">
   <path
   d="M 285,-33 C 182,-33 111,30 74,156 52,228 41,333 41,471 41,549 55,616 82,672 116,743 169,778 240,778 293,778 328,747 346,684 L 369,508 C 377,444 397,411 428,410 L 1163,1116 C 1174,1127 1196,1133 1229,1133 1271,1133 1292,1118 1292,1087 L 1292,965 C 1292,929 1282,901 1262,881 L 442,47 C 390,-6 338,-33 285,-33 Z"
   id="path8" />
  </g>
  <g
   id="bullet-char-template-9679"
   transform="scale(0.00048828125,-0.00048828125)">
   <path
   d="M 813,0 C 632,0 489,54 383,161 276,268 223,411 223,592 223,773 276,916 383,1023 489,1130 632,1184 813,1184 992,1184 1136,1130 1245,1023 1353,916 1407,772 1407,592 1407,412 1353,268 1245,161 1136,54 992,0 813,0 Z"
   id="path9" />
  </g>
  <g
   id="bullet-char-template-8226"
   transform="scale(0.00048828125,-0.00048828125)">
   <path
   d="M 346,457 C 273,457 209,483 155,535 101,586 74,649 74,723 74,796 101,859 155,911 209,963 273,989 346,989 419,989 480,963 531,910 582,859 608,796 608,723 608,648 583,586 532,535 482,483 420,457 346,457 Z"
   id="path10" />
  </g>
  <g
   id="bullet-char-template-8211"
   transform="scale(0.00048828125,-0.00048828125)">
   <path
   d="M -4,459 L 1135,459 1135,606 -4,606 -4,459 Z"
   id="path11" />
  </g>
  <g
   id="bullet-char-template-61548"
   transform="scale(0.00048828125,-0.00048828125)">
   <path
   d="M 173,740 C 173,903 231,1043 346,1159 462,1274 601,1332 765,1332 928,1332 1067,1274 1183,1159 1299,1043 1357,903 1357,740 1357,577 1299,437 1183,322 1067,206 928,148 765,148 601,148 462,206 346,322 231,437 173,577 173,740 Z"
   id="path12" />
  </g>
 </defs>
 
 <g
   id="id4"
   transform="translate(976.2069,-443.73042)"
   style="display:inline"
   inkscape:label="logo">
        
        <path
   fill="rgb(174,218,242)"
   stroke="none"
   d="m 6110.3273,4860.7924 c -1212.3288,0 -2238.5623,822.0709 -2556.5502,1935.0283 -276.4326,-590.807 -876.2733,-1004.5525 -1566.4516,-1004.5525 -948.5432,0 -1729.05885,780.5156 -1729.05885,1729.059 0,950.35 780.51565,1730.8657 1729.05885,1730.8657 690.1783,0 1290.019,-413.7456 1566.4516,-1004.5525 317.9879,1112.9575 1344.2214,1935.0286 2556.5502,1935.0286 1201.4882,0 2224.1083,-809.4239 2549.3233,-1909.7342 281.8527,576.3531 874.4667,979.2581 1555.6104,979.2581 948.543,0 1729.059,-780.5157 1729.059,-1730.8657 0,-948.5434 -780.516,-1729.059 -1729.059,-1729.059 -681.1437,0 -1273.7577,402.9051 -1555.6104,979.2581 C 8334.4356,5670.216 7311.8155,4860.7924 6110.3273,4860.7924 Z m 1644.1414,2659.5348 c 0,916.0219 -729.9264,1645.9486 -1644.1414,1645.9486 -914.2151,0 -1644.1418,-729.9267 -1644.1418,-1645.9486 0,-914.2151 729.9267,-1644.1418 1644.1418,-1644.1418 914.215,0 1644.1414,729.9267 1644.1414,1644.1418 z m -5051.6705,0 c 0,401.0983 -314.3743,715.4727 -715.4727,715.4727 -399.2915,0 -713.6659,-314.3744 -713.6659,-715.4727 0,-399.2916 314.3744,-713.6659 713.6659,-713.6659 401.0984,0 715.4727,314.3743 715.4727,713.6659 z m 8226.1288,0 c 0,401.0983 -314.375,715.4727 -713.666,715.4727 -401.0977,0 -715.4717,-314.3744 -715.4717,-715.4727 0,-399.2916 314.374,-713.6659 715.4717,-713.6659 399.291,0 713.666,314.3743 713.666,713.6659 z"
   id="path17"
   style="fill:#ffffff;fill-opacity:1;stroke-width:50.99"
   inkscape:label="path17" />
       </g>
</svg>
