<?xml version="1.0" encoding="UTF-8" standalone="no"?><!DOCTYPE svg PUBLIC "-//W3C//DTD SVG 1.1//EN" "http://www.w3.org/Graphics/SVG/1.1/DTD/svg11.dtd"><svg width="100%" height="100%" viewBox="0 0 12389 10745" version="1.1" xmlns="http://www.w3.org/2000/svg" xmlns:xlink="http://www.w3.org/1999/xlink" xml:space="preserve" xmlns:serif="http://www.serif.com/" style="fill-rule:evenodd;clip-rule:evenodd;stroke-linejoin:round;stroke-miterlimit:2;"><g id="print-logo"><path id="use4863" d="M4868.41,3351.78l-3017.72,5226.25l-704.561,-1194.32l813.294,-1399.69l-1615.19,-4.244l-344.233,-596.789l351.517,-610.395l2299.05,7.256l826.261,-1424.45l1391.58,-3.617Z" style="fill:#fff;"/><path id="use4865" d="M5099.92,7529.56l6034.94,0.3l-682.033,1207.33l-1618.81,-4.489l803.916,1400.92l-344.711,596.506l-704.378,0.789l-1143.24,-1994.67l-1646.75,-3.339l-698.917,-1203.34l-0.022,-0Z" style="fill:#fff;"/><path id="use4867" d="M8612.44,5239.56l-3017.2,-5226.55l1386.59,-13.006l805.523,1404.18l811.266,-1396.67l688.95,0.272l352.861,609.616l-1155.82,1987.41l820.483,1427.79l-692.656,1206.96Z" style="fill:#fff;"/><path id="path4873" d="M3779.38,5504.65l3017.21,5226.55l-1386.6,13.006l-805.522,-1404.18l-811.272,1396.67l-688.944,-0.272l-352.862,-609.617l1155.81,-1987.41l-820.478,-1427.79l692.655,-1206.96Z" style="fill:#fff;"/><path id="use4875" d="M7283.89,3201.43l-6034.94,-0.295l682.028,-1207.33l1618.82,4.483l-803.922,-1400.92l344.716,-596.505l704.378,-0.778l1143.24,1994.67l1646.74,3.339l698.923,1203.33l0.022,-0Z" style="fill:#fff;"/><path id="use4877" d="M7519.33,7391.33l3017.72,-5226.25l704.567,1194.32l-813.295,1399.69l1615.19,4.245l344.233,596.783l-351.516,610.4l-2299.06,-7.261l-826.266,1424.46l-1391.57,3.616Z" style="fill:#fff;"/></g></svg>