<?xml version="1.0" encoding="UTF-8" standalone="no"?>
<svg
   width="100%"
   height="100%"
   viewBox="0 0 12389 10745"
   version="1.1"
   xml:space="preserve"
   style="fill-rule:evenodd;clip-rule:evenodd;stroke-linejoin:round;stroke-miterlimit:2;"
   id="svg1"
   sodipodi:docname="nix-snowflake-white-small.svg"
   inkscape:version="1.4.2 (ebf0e940d0, 2025-05-08)"
   xmlns:inkscape="http://www.inkscape.org/namespaces/inkscape"
   xmlns:sodipodi="http://sodipodi.sourceforge.net/DTD/sodipodi-0.dtd"
   xmlns="http://www.w3.org/2000/svg"
   xmlns:svg="http://www.w3.org/2000/svg"><defs
     id="defs1" /><sodipodi:namedview
     id="namedview1"
     pagecolor="#ffffff"
     bordercolor="#000000"
     borderopacity="0.25"
     inkscape:showpageshadow="2"
     inkscape:pageopacity="0.0"
     inkscape:pagecheckerboard="0"
     inkscape:deskcolor="#d1d1d1"
     inkscape:zoom="0.06297824"
     inkscape:cx="6335.5216"
     inkscape:cy="5279.6013"
     inkscape:window-width="2048"
     inkscape:window-height="1208"
     inkscape:window-x="0"
     inkscape:window-y="0"
     inkscape:window-maximized="1"
     inkscape:current-layer="print-logo" /><g
     id="print-logo"><path
       id="use4863"
       d="M 5118.2544,3395.0459 2321.494,8239.1806 1689.8203,7168.4138 l 729.1582,-1254.8911 -1448.09751,-3.805 -308.6218,-535.0507 315.1523,-547.2493 2061.21171,6.5054 853.4002,-1471.4946 1190.9973,11.2275 z"
       style="fill:#ffffff;fill-opacity:1;stroke-width:0.896549"
       sodipodi:nodetypes="ccccccccccc" /><path
       id="use4865"
       d="m 5234.589,7299.1755 5410.621,0.269 -611.476,1082.4309 -1451.3429,-4.0246 720.7503,1255.9934 -309.0504,534.7968 -631.5096,0.708 -1024.971,-1788.32 -1721.9612,-2.9935 -562.5719,-1078.8537 v 0 z"
       style="fill:#ffffff;fill-opacity:1;stroke-width:0.896549"
       sodipodi:nodetypes="cccccccccccc" /><path
       id="use4867"
       d="M 8451.681,5365.2648 5678.6678,560.2177 l 1243.1463,-11.6605 722.1911,1258.9166 727.34,-1252.1835 617.6776,0.2439 316.3573,546.5508 L 8269.1305,2883.8961 9076.803,4289.4337 8453.2539,5372.5 Z"
       style="fill:#ffffff;fill-opacity:1;stroke-width:0.896549"
       sodipodi:nodetypes="ccccccccccc" /><path
       id="path4873"
       d="m 3974.2189,5350.6803 2781.5184,4818.9227 -1243.1553,11.661 -722.1902,-1258.9164 -727.3454,1252.1834 -617.6722,-0.244 L 3129.016,9627.7352 4165.2567,7845.9245 3337.803,6405.7237 3950.6235,5345.6445 Z"
       style="fill:#ffffff;fill-opacity:1;stroke-width:0.896549"
       sodipodi:nodetypes="ccccccccccc" /><path
       id="use4875"
       d="m 7192.6258,3418.7935 -5410.6214,-0.2645 611.4718,-1082.4309 1451.3519,4.0193 -720.7557,-1255.9939 309.0549,-534.7961 631.5096,-0.6976 1024.9711,1788.3201 1728.0404,2.9935 588.8901,1078.8447 v 0 z"
       style="fill:#ffffff;fill-opacity:1;stroke-width:0.896549"
       sodipodi:nodetypes="cccccccccccc" /><path
       id="use4877"
       d="m 7316.5147,7326.5015 2792.7293,-4836.8469 631.679,1070.7668 -729.159,1254.8911 1448.097,3.8059 308.622,535.0454 -315.151,547.2537 -2061.2205,-6.5099 -827.9829,1429.2444 -1253.8394,22.8162 z"
       style="fill:#ffffff;fill-opacity:1;stroke-width:0.896549"
       sodipodi:nodetypes="ccccccccccc" /></g></svg>
